<svg preserveAspectRatio="xMidYMid meet" data-bbox="16.49 23.664 594.31 425.355" viewBox="0 0 630 465.05" xmlns="http://www.w3.org/2000/svg" data-type="ugc" role="presentation" aria-hidden="true" aria-label="">
    <g style="isolation:isolate">
        <path d="M48.03 65.01c-40.97 72.75 61.21 289.24 258.2 305.9 150.2 12.7 284.71-96.75 304.43-244.7 1.03-7.71-3.7-15.03-11.17-17.21C207.93-5.55 78.03 11.73 48.03 65.01" fill="#e4effa"></path>
        <path d="M298.79 234.05a19 19 0 0 0-2.63-3.82c-13.96-15.83-61.67-19.97-188.9 12.68-.06.02-.11.02-.16.04-2.49.65-4.16 2.99-3.91 5.54a96.8 96.8 0 0 0 10.54 35.49c0 .02 0 .02.02.03 2.46 4.72 5.29 9.22 8.46 13.45 18.21 23.25 50.35 37.56 85.91 35.2 25.47-1.69 48.07-11.63 64.34-26.49 9.03-9.16 16.11-19.44 21.01-29.52.02-.02.02-.05.03-.07 8.15-16.76 10.27-32.97 5.3-42.52Zm-57.56 13.85c-65.28 13.4-131.18 7.11-131.45.64-.15-3.39 18.04-2.22 80.15-16.04 14.73-3.27 44.29-10.14 80.99-6.21 15.3 1.64 17.88 3.67 18.03 5.13.66 6.4-43.86 15.68-47.72 16.47Z" fill="#352a64"></path>
        <path d="M288.95 231.43c.65 6.41-43.86 15.68-47.72 16.47-65.28 13.4-131.19 7.11-131.46.65-.15-3.39 18.05-2.22 80.16-16.04 14.73-3.27 44.29-10.14 80.99-6.21 15.3 1.64 17.88 3.67 18.03 5.13" fill="#474747"></path>
        <path d="M288.95 231.43c.66 6.4-43.86 15.68-47.72 16.47-65.28 13.4-131.18 7.11-131.45.64-.15-3.39 18.04-2.22 80.15-16.04 14.73-3.27 44.29-10.14 80.99-6.21 15.3 1.64 17.88 3.67 18.03 5.13Z" fill="none" stroke="#3f4b75" stroke-miterlimit="10" stroke-width=".91"></path>
        <path d="M288.95 231.43c.65 6.41-43.86 15.68-47.72 16.47-65.28 13.4-131.19 7.11-131.46.65-.15-3.39 18.05-2.22 80.16-16.04 14.73-3.27 44.29-10.14 80.99-6.21 15.3 1.64 17.88 3.67 18.03 5.13" fill="#ffffff"></path>
        <path d="M120.87 271.66c2.9 7.4 9.35 20.79 22.99 32.22 7.49 6.27 14.92 10.08 20.65 12.43-4.84-3.79-12.67-10.97-18.53-22.39a67.6 67.6 0 0 1-6.79-21.51c-2.4.28-5.16.45-8.19.38-3.86-.09-7.27-.55-10.12-1.12Z" fill="#4156a4"></path>
        <path d="M422.75 142.14c-1.66 6.03-6.23 12.99-13.71 20.89-7.47 7.9-16.03 15.28-25.67 22.16-.09.1-5.54 3.53-16.34 10.27-.55-30.77-.76-59.88-.64-87.33 11.38 1.44 21.85 3.99 31.43 7.64 10.27 3.8 17.6 8.29 22.02 13.5 1.97 2.57 3.11 4.6 3.44 6.1.32 1.52.15 3.77-.54 6.77Z" fill="#e46142"></path>
        <path d="M562.38 222.86q0 21.045-6.6 39.27c-4.41 12.15-10.33 21.8-17.78 28.94-7.44 7.15-15.44 10.72-23.98 10.72s-16.54-3.58-23.98-10.72c-7.45-7.15-13.38-16.8-17.78-28.94q-6.6-18.24-6.6-39.27c0-21.03 2.18-27.12 6.54-39.27 4.35-12.16 10.26-21.81 17.71-28.95 7.44-7.14 15.48-10.71 24.11-10.71s16.67 3.57 24.12 10.71c7.44 7.15 13.35 16.8 17.71 28.95 4.35 12.16 6.53 25.24 6.53 39.27" style="mix-blend-mode:multiply" fill="#ccd751"></path>
        <path d="M449.24 128.21a50 50 0 0 0-1.2-4.38c-2.21-6.88-5.91-13.18-11.08-18.91-9.22-10.14-21.06-17.78-35.5-22.95-5.54-1.97-12.24-3.61-20.1-4.93-7.87-1.32-15.05-2.25-21.56-2.81-6.52-.55-13.38-.93-20.58-1.15s-12.07-.31-14.56-.3c-2.5.02-4.46.03-5.9.03-.83 38.32-.68 81.49.42 129.52.12 4.91.36 15.18.72 30.83s.58 27.16.68 34.57c.09 7.41.14 17.14.17 29.2.03 12.07-.14 22.97-.5 32.73l40.72 1.44c.73-21.04.64-52.32-.25-93.84 15.26-8.34 27.69-15.97 37.28-22.87 7.04-5.14 13.36-10.27 18.97-15.4 3.12-2.85 6.03-5.71 8.72-8.56 11.25-11.91 18.73-23.78 22.44-35.59 2.68-9.05 3.06-17.92 1.11-26.62Zm-40.14 15.03c-1.47 5.34-5.51 11.5-12.14 18.49-6.62 6.99-14.19 13.53-22.73 19.61q-.12.135-14.46 9.09-.72-40.86-.57-77.31c10.07 1.27 19.35 3.53 27.83 6.76 9.09 3.37 15.58 7.34 19.5 11.95 1.74 2.27 2.76 4.08 3.04 5.4.29 1.35.13 3.34-.48 6Z" fill="#352a64"></path>
        <path d="M583.52 168.88c-4.53-14.44-10.66-26.82-18.39-37.16-7.73-10.32-16.97-18.51-27.71-24.56-10.75-6.04-22.12-9.07-34.13-9.07-16.04 0-30.71 5.14-44.01 15.43-4 3.09-7.75 6.53-11.24 10.3-8.12 8.78-14.88 19.41-20.25 31.9-5.77 13.41-9.38 27.83-10.82 43.26-.48 5.1-.71 10.31-.71 15.62 0 16.03 2.27 31.28 6.8 45.72s10.66 26.82 18.39 37.15 16.97 18.52 27.71 24.56c10.75 6.05 22.12 9.07 34.13 9.07s23.39-3.02 34.13-9.07c10.75-6.04 19.98-14.23 27.71-24.56 7.72-10.32 13.85-22.71 18.39-37.15 4.53-14.44 6.8-29.69 6.8-45.72s-2.27-31.29-6.8-45.72m-39.98 83.57c-4.25 11.71-9.96 21.01-17.14 27.89-7.17 6.89-14.88 10.33-23.11 10.33s-15.93-3.45-23.11-10.33c-7.18-6.89-12.89-16.19-17.14-27.89-4.24-11.72-6.36-24.33-6.36-37.85s2.1-26.13 6.3-37.85q6.285-17.58 17.07-27.9c7.17-6.89 14.92-10.32 23.23-10.32s16.06 3.44 23.24 10.32q10.755 10.335 17.07 27.9c4.19 11.72 6.29 24.33 6.29 37.85s-2.12 26.13-6.36 37.85Z" fill="#352a64"></path>
        <path d="M224.78 229.26c.08-1.46.3-3.24.76-5.21 2.78-11.94 13.07-23.9 27.17-26.84 8.55-1.79 15.84.31 19.79 1.84-1.74.14-4.36.61-6.67 2.41-4.73 3.67-3.31 9.17-6.22 16.09-2.76 6.57-8.96 13.32-16.97 15.51-6.66 1.82-12.73 0-16.28-1.54-1.2 1.41-2.41 2.92-3.63 4.54-.66-.75-1.32-1.49-1.98-2.24 1.09-1.34 2.43-2.89 4.03-4.55Zm1.84-.01c.21.19 3.99-4.26 10.27-10.05 2.85-2.64 6.23-5.55 10.02-8.43 4.34-3.3 7.06-4.91 7.08-4.98-.15-.04-9.25 5.11-18.37 13.57-1.03.96-1.97 1.88-2.84 2.75a94 94 0 0 0-4.56 4.91c-1.41 1.75-1.64 2.17-1.59 2.23Z" fill="#9eb83d"></path>
        <path d="M226.62 229.25c.21.19 3.99-4.26 10.27-10.05 2.85-2.64 6.23-5.55 10.02-8.43 4.34-3.3 7.06-4.91 7.08-4.98-.15-.04-9.25 5.11-18.37 13.57-1.03.96-1.97 1.88-2.84 2.75a94 94 0 0 0-4.56 4.91c-1.41 1.75-1.64 2.17-1.59 2.23Z" fill="#ffffff"></path>
        <path d="M128.22 222.73c-.45-1.25-1.1-2.74-2.01-4.33-5.5-9.66-17.54-17.4-30.55-16.32-7.9.66-13.69 4.36-16.73 6.71 1.55-.33 3.95-.6 6.42.37 5.06 1.97 5.25 7.12 9.56 12.38 4.1 5 11.23 9.27 18.76 9.1 6.26-.14 11.07-3.29 13.76-5.55 1.41.92 2.85 1.92 4.33 3.01.38-.82.77-1.64 1.14-2.46-1.29-.88-2.86-1.89-4.68-2.92Zm-1.61.48c-.13.22-4.57-2.67-11.52-6.09-3.16-1.56-6.85-3.22-10.89-4.74-4.62-1.75-7.4-2.44-7.44-2.5.12-.07 9.36 2.06 19.48 7.06 1.14.57 2.2 1.12 3.18 1.66 2.17 1.18 3.93 2.25 5.23 3.09 1.68 1.16 1.99 1.46 1.96 1.53Z" fill="#9eb83d"></path>
        <path d="M126.61 223.21c-.13.22-4.57-2.67-11.52-6.09-3.16-1.56-6.85-3.22-10.89-4.74-4.62-1.75-7.4-2.44-7.44-2.5.12-.07 9.36 2.06 19.48 7.06 1.14.57 2.2 1.12 3.18 1.66 2.17 1.18 3.93 2.25 5.23 3.09 1.68 1.16 1.99 1.46 1.96 1.53Z" fill="#ffffff"></path>
        <path d="M79.49 110.86c-.15-1.89-.5-4.19-1.16-6.74-4.01-15.42-17.78-30.61-36.19-33.96-11.17-2.04-20.57.93-25.65 3.05 2.27.12 5.69.65 8.74 2.9 6.27 4.61 4.61 11.8 8.62 20.7 3.81 8.45 12.08 17 22.56 19.58 8.72 2.14 16.54-.44 21.1-2.55 1.6 1.79 3.23 3.71 4.87 5.78.83-.99 1.67-1.98 2.5-2.97-1.46-1.7-3.25-3.68-5.39-5.78Zm-2.4.06c-.27.25-5.32-5.4-13.68-12.72-3.79-3.33-8.28-7-13.3-10.62-5.75-4.14-9.33-6.14-9.36-6.23.19-.05 12.19 6.33 24.32 17.02 1.37 1.21 2.63 2.38 3.79 3.48 2.56 2.44 4.6 4.58 6.09 6.23 1.89 2.23 2.21 2.76 2.14 2.84" fill="#9eb83d"></path>
        <path d="M77.09 110.92c-.27.25-5.32-5.4-13.68-12.72-3.79-3.33-8.28-7-13.3-10.62-5.75-4.14-9.33-6.14-9.36-6.23.19-.05 12.19 6.33 24.32 17.02 1.37 1.21 2.63 2.38 3.79 3.48 2.56 2.44 4.6 4.58 6.09 6.23 1.89 2.23 2.21 2.76 2.14 2.84" fill="#ffffff"></path>
        <path d="M185.45 208.82c-1.09 3-4.8 4.85-8.14 4.92-4.15.08-8.04-2.6-9.33-6.6-1.69-5.26 1.76-10.8 5.47-11.79 5.81-1.54 14.13 7.61 12 13.47" fill="#e46142"></path>
        <path d="M174.78 124.29c5.19 6.79 7.43 14.04 6.72 21.76-1.46 13.19-8.75 24.13-21.88 32.84-9.67 6.06-20.37 9.45-32.09 10.18l-5.37.53-10.6 1.05-5.37.53c-.17-7.98-1.56-31.52-4.17-70.61-2.6-39.09-4-61.65-4.18-67.69.72-.04 1.69-.08 2.9-.12 1.22-.05 3.54-.08 6.97-.1s6.65.01 9.64.1 6.18.34 9.54.73c3.37.39 6.06.92 8.08 1.6 7 2.38 12.6 5.71 16.79 9.98 3.02 3.1 5.07 6.67 6.15 10.7 1.08 3.99 1.12 8.13.1 12.4-1.37 5.53-4.42 11.17-9.16 16.9-.23.34-1.12 1.32-2.65 2.94 4.56 1.16 8.54 2.39 11.94 3.68 6.78 2.81 12.32 7 16.61 12.58ZM148 160.67c3.26-1.99 6.02-4.55 8.29-7.68s3.48-6.01 3.64-8.65c.3-2.16-.51-4.51-2.42-7.05s-4.48-4.42-7.69-5.65q-9.585-3.87-25.98-5.43 2.115 27.3 2.88 40.71c8.48-.59 15.57-2.68 21.27-6.25Zm-27.51-86.78c.47 9.04 1.01 18.02 1.6 26.95.12-.15.35-.33.68-.55l.76-.49c3.32-2.68 6.29-5.6 8.92-8.77s4.15-5.74 4.56-7.74c.11-1.01.13-1.62.07-1.84-.07-.22-.4-.72-.98-1.52-1.55-1.68-4.15-3.11-7.81-4.28-2.48-.76-5.08-1.35-7.79-1.77Z" fill="#352a64"></path>
        <path d="M187.71 136.34c-.42-5.88.27-11.41 2.06-16.57s4.47-9.67 8.04-13.52c3.56-3.85 7.98-6.96 13.25-9.33s11.24-3.79 17.92-4.27c6.52-.46 12.41.24 17.66 2.11s9.71 4.55 13.4 8.04c3.68 3.5 6.57 7.61 8.67 12.34 2.09 4.73 3.33 9.8 3.71 15.21-19.68 7.37-39.37 14.75-59.05 22.12 3.31 2.59 11.09 7.93 22.29 8.96 17.34 1.6 29.58-8.37 32.03-10.46 1.74 6.71 3.48 13.42 5.21 20.12-2.61 1.62-5.54 3.03-8.81 4.22-2.8 1.16-6.12 2.23-9.96 3.22-3.85.99-8.16 1.66-12.93 2-7.8.55-14.88-.11-21.24-1.97-6.37-1.86-11.85-4.71-16.43-8.55-4.59-3.83-8.25-8.61-10.97-14.33s-4.34-12.16-4.85-19.32Zm60.21-13.35c-.02-.23-.37-1.02-1.04-2.37-.68-1.35-1.72-2.85-3.11-4.49-1.4-1.65-3.25-3.09-5.54-4.32-2.3-1.23-5.18-1.73-8.66-1.48-6.95.49-11.71 3.16-14.27 7.99-2.57 4.84-3.61 10.61-3.14 17.33z" fill="#352a64"></path>
        <path d="M195.93 51.52c7.92 5.44 9.96 16.43 4.52 24.35s-16.43 9.96-24.35 4.52c6.61-9.62 13.22-19.24 19.83-28.87" fill="#e69f3b"></path>
        <path d="M67.71 152.36s-3.06-2.13-6.37-2.61c-3.3-.48-5.1 1.14-5.1 1.14s3.38 2.04 5.71 1.88 5.76-.4 5.76-.4Z" fill="#9eb83d"></path>
        <path d="M66.23 154.22s1.34-3.96.55-7.22-3.54-4-3.54-4-1.09 4.19.08 6.22c1.18 2.03 2.91 5 2.91 5" fill="#9eb83d"></path>
        <path d="M84.4 170.17c-2.71 2.54-7.65 1.07-11.16.03-3.92-1.16-10.58-3.15-11.86-8.61-1.29-5.52 3.92-10.38 4.7-11.08.97-.87 5.25-4.73 10.07-3.58 5.07 1.21 7.06 7.07 8.26 10.6.96 2.83 3.25 9.57-.01 12.64" fill="#de5373"></path>
        <path d="M126.1 371.32c-.1 3.15-1.16 5.74-3.17 7.78-3.49 3.42-8.13 4.84-13.91 4.26-4.18-.53-8.02-2.06-11.53-4.59l-1.66-1.1c-1.09-.73-2.18-1.45-3.27-2.17l-1.66-1.1c1.82-2.32 6.92-9.36 15.3-21.11s13.26-18.52 14.62-20.28c.21.16.5.37.86.64s1.03.8 2.01 1.6 1.89 1.56 2.72 2.28c.83.73 1.68 1.54 2.55 2.44s1.51 1.68 1.93 2.34c1.44 2.32 2.26 4.57 2.46 6.77.14 1.59-.11 3.08-.74 4.49-.62 1.39-1.58 2.58-2.87 3.56-1.68 1.26-3.87 2.15-6.56 2.68-.15.04-.63.12-1.44.22 1.03 1.4 1.88 2.67 2.55 3.84 1.28 2.39 1.88 4.87 1.8 7.47Zm-16.13 4.12c1.39.19 2.78.11 4.16-.25q2.07-.54 3.06-1.62.885-.825.96-2.58c.05-1.17-.24-2.31-.87-3.41-1.22-2.23-3.27-4.77-6.14-7.61-3.85 5.52-6.74 9.61-8.69 12.28q3.84 2.715 7.53 3.18Zm12.42-31.17c-1.98 2.69-3.92 5.37-5.84 8.06.07-.01.18-.01.32 0 .15.02.26.03.33.04q2.355.015 4.59-.42c1.49-.29 2.52-.67 3.11-1.14q.405-.39.45-.51c.03-.08.06-.3.07-.66-.05-.84-.46-1.86-1.23-3.04-.53-.8-1.13-1.57-1.81-2.33Z" fill="#352a64"></path>
        <path d="m133.79 381.43 13.41 7.37-3.85 6.98-20.25-11.18 14.78-28.42 20.52 11.26-3.92 6.95-13.2-7.25-1.55 2.97 8.2 4.47-3.85 6.98-8.05-4.39-2.23 4.25Z" fill="#352a64"></path>
        <path d="M198.01 387.32c-.4 1.7-1.23 3.23-2.48 4.59-1.67 1.77-4 3.21-7 4.35-2 .76-4.32 1.38-6.93 1.85-2.28.4-5.12.67-8.53.84-3.4 7.39-6.07 12.91-8 16.56l-7.05-3.74c.9-1.69 1.87-3.6 2.89-5.72s1.85-3.85 2.47-5.16 1.56-3.36 2.84-6.15 2.12-4.62 2.51-5.49c3.92-8.56 7.6-16.18 11.03-22.86.25.12.6.29 1.04.5s1.29.64 2.54 1.3 2.43 1.31 3.53 1.97 2.29 1.44 3.56 2.34c1.27.91 2.31 1.77 3.12 2.59 2.1 2.15 3.53 4.51 4.29 7.09.51 1.75.56 3.47.17 5.16Zm-8.36-.79q.51-.63.6-1.02c.06-.26.04-.67-.07-1.21-.29-1.15-1.1-2.4-2.41-3.78-1.22-1.29-2.66-2.49-4.33-3.58-2.1 4.27-4.28 8.83-6.53 13.67 2.2-.23 3.3-.36 3.33-.36 2.03-.34 3.92-.84 5.69-1.51q2.655-.99 3.72-2.22Z" fill="#352a64"></path>
        <path d="M223.58 394.86c-1.21 5.71-3.14 10.66-5.8 14.85-1.75 2.67-3.66 4.81-5.74 6.44-3.36 2.53-6.67 3.44-9.92 2.74-1.87-.36-3.56-1.21-5.07-2.54s-2.54-2.87-3.1-4.61c-.9-2.64-1.06-5.71-.48-9.22.46-2.69 1.29-5.32 2.48-7.9 1.37-2.91 2.93-5.32 4.69-7.21l5.71 5.57c-1.16 1.27-2.21 2.93-3.14 4.96-.93 2.04-1.56 4.01-1.89 5.93-.37 2.11-.33 3.83.14 5.15.34 1.02 1.08 1.71 2.22 2.05.85.28 2.03-.14 3.54-1.28 1.35-1.05 2.63-2.52 3.85-4.4 2.13-3.36 3.69-7.39 4.66-12.09l7.84 1.54Z" fill="#352a64"></path>
        <path d="m236.09 415.46 4.21 12.67-7.48 2.73-4.35-13.04c-1.11.19-1.88.31-2.32.35l-2.81 10.85-7.74-1.93 8.84-34.13c.3.04.7.12 1.2.22q.75.165 2.88.72c1.42.38 2.75.8 3.98 1.26 1.24.47 2.58 1.1 4.01 1.9s2.6 1.66 3.49 2.57c.73.74 1.3 1.66 1.71 2.77a9.9 9.9 0 0 1 .62 3.38c.08 2.26-.64 4.37-2.15 6.32-1.05 1.34-2.41 2.45-4.1 3.35Zm-2.21-8.22c.34-.44.5-.86.47-1.24 0-.43-.19-.87-.53-1.32-.61-.77-1.81-1.48-3.63-2.12l-1.87 7.22c.05 0 .13-.01.23-.03s.19-.03.27-.04.16-.03.23-.04c1.17-.28 2.18-.63 3.04-1.06s1.46-.88 1.8-1.36Z" fill="#352a64"></path>
        <path d="m251.51 425.2 15.04 2.83-1.49 7.84-22.73-4.32 5.2-31.61 23 4.32-1.56 7.82-14.8-2.79-.55 3.31 9.19 1.69-1.49 7.84-9.02-1.66-.8 4.73Z" fill="#352a64"></path>
        <path d="m269.87 427.28 9.98 1.36-1.34 9.83-9.98-1.36z" fill="#352a64"></path>
        <path d="M328.1 427.78c1.54 2.75 1.97 5.51 1.3 8.29-1.23 4.73-4.46 8.34-9.71 10.83-3.85 1.7-7.93 2.38-12.25 2.03l-1.98-.09c-1.31-.06-2.62-.12-3.92-.17l-1.99-.09c.36-2.92 1.09-11.58 2.2-25.98s1.79-22.71 2.04-24.92c.27.03.62.06 1.07.11s1.29.16 2.55.33q1.89.255 3.51.54c1.09.19 2.24.45 3.45.77s2.16.66 2.87 1.01c2.43 1.24 4.29 2.75 5.6 4.53q1.41 1.935 1.68 4.23c.18 1.51-.02 3.02-.62 4.53-.79 1.95-2.2 3.84-4.23 5.68-.1.11-.48.42-1.12.93 1.6.66 2.99 1.32 4.16 1.97 2.33 1.38 4.12 3.21 5.4 5.46Zm-11.68 11.87c1.29-.56 2.44-1.34 3.43-2.37.99-1.02 1.59-2.01 1.78-2.96q.33-1.155-.51-2.7c-.56-1.03-1.4-1.85-2.51-2.47-2.2-1.28-5.26-2.39-9.19-3.35-.44 6.71-.81 11.72-1.09 15.01 3.12.23 5.82-.16 8.09-1.16m-5.47-33.11c-.3 3.32-.58 6.63-.83 9.92.05-.05.14-.1.28-.16.13-.06.24-.11.3-.14q2.025-1.2 3.72-2.73 1.68-1.53 2.07-2.58c.1-.36.13-.58.12-.67-.01-.08-.11-.29-.28-.6-.47-.7-1.35-1.35-2.62-1.97-.87-.41-1.79-.76-2.75-1.06Z" fill="#352a64"></path>
        <path d="m339.94 432.43 15.29-.67.34 7.97-23.11.97-2.14-31.96 23.38-1.04.26 7.97-15.04.66.22 3.35 9.33-.44.34 7.97-9.16.44.3 4.79Z" fill="#352a64"></path>
        <path d="M379.29 397.86c1.89-1.53 4.01-2.49 6.34-2.88 2.34-.39 4.65-.18 6.94.64s4.35 2.11 6.19 3.87c1.84 1.75 3.44 3.96 4.8 6.62q2.025 3.99 2.82 8.67c.53 3.12.58 6.16.18 9.12-.41 2.96-1.2 5.57-2.36 7.83s-2.69 4.16-4.58 5.69-4.01 2.49-6.34 2.88c-3.12.53-6.14 0-9.07-1.56s-5.43-3.96-7.51-7.18-3.47-6.91-4.17-11.08q-.795-4.68-.18-9.12c.41-2.96 1.2-5.57 2.36-7.83s2.69-4.16 4.58-5.69Zm7.8 33.33c1.62 1.1 3.24 1.52 4.86 1.25s3.01-1.2 4.18-2.77 1.97-3.57 2.41-5.99c.43-2.42.43-4.94-.02-7.57s-1.27-5.01-2.48-7.15-2.62-3.76-4.25-4.86c-1.62-1.1-3.23-1.52-4.84-1.25s-2.98 1.19-4.16 2.77c-1.17 1.58-1.98 3.57-2.42 5.99s-.44 4.94 0 7.57 1.27 5.02 2.47 7.16 2.61 3.76 4.23 4.87Z" fill="#352a64"></path>
        <path d="m424.54 413.75 9.77 9.1-5.26 5.98-10.06-9.36c-.88.7-1.51 1.17-1.87 1.42l2.73 10.87-7.72 2.01-8.59-34.2c.28-.1.67-.23 1.16-.38s1.45-.4 2.87-.75 2.79-.62 4.1-.8 2.79-.27 4.43-.25c1.64.01 3.08.21 4.3.59 1 .3 1.94.83 2.82 1.61.89.78 1.61 1.67 2.17 2.67 1.16 1.95 1.54 4.14 1.14 6.58-.28 1.68-.95 3.31-2 4.91Zm-5.88-6.16c.08-.55.02-.99-.18-1.31-.21-.37-.58-.67-1.1-.9-.9-.39-2.3-.43-4.21-.12l1.81 7.23s.11-.07.18-.14c.08-.06.15-.12.21-.17l.18-.15c.89-.8 1.61-1.6 2.16-2.39.54-.79.86-1.47.93-2.05Z" fill="#352a64"></path>
        <path d="m460.73 410.33 3.16 9.4-7.19 2.39-1.27-3.74c-1.66 1.76-3.51 2.96-5.54 3.6-1.69.58-3.48.76-5.38.53-1.89-.23-3.6-.84-5.13-1.85-2.44-1.54-4.47-4.05-6.1-7.53-1.3-3.04-2-5.99-2.09-8.83 0-1.41.24-3.04.74-4.89.48-1.63 1.18-3.14 2.12-4.5.69-.99 1.49-1.86 2.41-2.62s1.98-1.39 3.2-1.9c1.21-.51 2.5-.75 3.86-.74 3.85.11 7.04 1.67 9.57 4.7l-5.91 4.72c-.39-.5-.95-.93-1.68-1.3s-1.39-.55-1.98-.55c-.48-.03-1.04.13-1.68.51-.64.37-1.16.87-1.57 1.49-.43.61-.79 1.4-1.09 2.37-.35 1.12-.49 2-.43 2.62.03 1.86.5 3.81 1.43 5.86q1.41 3.12 3.24 4.2c1.17.77 2.54.94 4.12.52 1.47-.39 2.59-1.04 3.35-1.94s.96-2.11.59-3.63l-5.51 2.03-2.69-7.07 13.54-4.74 1.99 5.39c.23.55.42 1.02.56 1.4s.26.73.35 1.05c.1.32.17.56.22.71l.79 2.36Z" fill="#352a64"></path>
        <path d="m471.71 378.49 22.82 23.32-5.56 5.41-4.83-5.18-12.28 4.83.23 7.33-7.76.08-.14-4.43-.76.31-2.93-7.42 3.43-1.33.1-19.75 7.65-3.16h.02Zm-.11 19.91 6.71-2.63-6.23-5.52z" fill="#352a64"></path>
        <path d="m502.75 362.26 7.51-2.6 10.48 31.98-7.54 2.54-13.49-10.8 5.9 18.02-7.58 2.53-10.45-31.91 7.54-2.62 13.58 11.04-5.95-18.17Z" fill="#352a64"></path>
        <path d="m517.58 355.99 16.31 26.99-6.81 4.15-16.26-26.91 6.76-4.24Z" fill="#352a64"></path>
        <path d="M543.62 367.9c1.1-.74 1.88-1.72 2.33-2.95l7.48 2.7c-1.03 2.83-2.81 5.11-5.34 6.83-2.4 1.64-5.12 2.46-8.17 2.48-1.41.03-2.88-.19-4.4-.68q-2.295-.72-3.93-2.07c-2.12-1.61-3.83-3.66-5.13-6.13-.62-1.13-1.11-2.4-1.47-3.8s-.54-2.74-.54-4.01c-.09-3.14.59-5.9 2.05-8.27.82-1.37 1.91-2.52 3.27-3.46s2.93-1.53 4.71-1.78c3.29-.34 6.24.45 8.83 2.37l-4.81 6.38c-.39-.3-.88-.53-1.46-.69s-1.13-.21-1.63-.14c-.82.09-1.54.6-2.14 1.54-.6.93-.88 2.22-.84 3.86s.41 3.08 1.12 4.32c.75 1.43 1.71 2.58 2.88 3.47.51.4 1.03.69 1.55.85.53.17 1.16.26 1.9.28 1.48-.02 2.73-.38 3.75-1.09Z" fill="#352a64"></path>
        <path d="m553.7 359.74 8.22-5.83 5.74 8.09-8.22 5.83z" fill="#352a64"></path>
    </g>
</svg>