<svg xmlns="http://www.w3.org/2000/svg" xmlns:xlink="http://www.w3.org/1999/xlink" x="0px" y="0px" viewBox="0 0 200 200" style="enable-background:new 0 0 200 200;" xml:space="preserve">	<path d="M69.4,43.7c-0.2-1.1-1.2-1.9-2.4-1.6c-92.1,18.5-80.4,151.1,13.6,153.4c3.8,0,7.5-0.3,11.2-0.8c1.1-0.2,1.9-1.2,1.8-2.4 c-0.2-1.1-1.2-1.9-2.4-1.8c-3.5,0.5-7.1,0.8-10.6,0.8C-8.4,189.1-19.5,63.6,67.8,46C68.9,45.9,69.6,44.8,69.4,43.7z"></path>	<path d="M194.8,117.7c-0.2-1.2-1.5-1.9-2.6-1.5l-9.1,2.9c-28.1,8.9-70.5,22.5-98.6,31.5L73.7,154c-0.5,0.2-1,0.6-1.2,1.1 c-1.2,1.4,5.4,14.3,17.4,25.4c13.5,12.8,36.8,19.4,59.8,12.9C193,183.2,200.1,141.6,194.8,117.7z M177.8,152.6l-30.3-12.8 c0.5-1.6,0.9-3.4,1-5.4l33.4-10.6C182.3,130.4,182.2,141.8,177.8,152.6z M153.3,176.8l-11.1-30.5c1.4-0.7,2.5-1.6,3.4-2.8l30.5,12.9 C171.9,164.7,164.9,172.4,153.3,176.8z M88.1,153.7l37.8-12.1c1.1,1.7,2.3,3.1,3.8,4l-21.8,28.8C97.8,168.4,91.4,159.4,88.1,153.7z  M130.1,140.4l14.2-4.5c-0.2,1.8-0.6,3.2-1.4,4.4C140.4,144.8,132.8,144.5,130.1,140.4z M190.2,148.9c-7.2,41.2-68.9,56.5-97.5,28.6 c-8.6-7.6-13.6-16.4-15.5-20.3l6.9-2.2c4.6,8.3,16.1,24.6,36.8,28.9c2.6,0.5,3.5-3.4,0.8-4.1c-3.7-0.8-7.1-1.9-10.1-3.4l21.9-29.1 c1.5,0.4,3.1,0.4,4.6,0.2l11.2,30.6c-2.2,0.6-4.5,1.2-6.7,1.6c-1.1,0.2-1.8,1.3-1.6,2.4c0.2,1.1,1.3,1.8,2.4,1.6 c39.6-6.2,44.5-45.2,42.4-61.3l5.3-1.7C191.9,125.5,193.1,136.8,190.2,148.9z"></path>	<path d="M73.5,52.2c-1.7-2.1-4.9,0.4-3.2,2.5c0.2,0.3,4.8,5.9,14.4,5.9c1.4,0,3-0.1,4.6-0.4c1.1-0.2,1.9-1.2,1.7-2.4 c-0.2-1.1-1.2-1.9-2.4-1.7c-4.4,0.8-7.7,0.2-10.1-0.7c0.5-3.9,2.4-23.1-2.8-37.2c-0.9-2.4,0.2-5,2.5-6l3.5-1.5 c1.2,4.8,3.8,16.9,2.8,32.5c-0.2,3-0.4,5-0.8,7.9c-0.3,2.7,3.6,3.2,4.1,0.6c0.3-2.1,0.5-4.2,0.7-6.2c37.1,3.9,65.9,36.1,65.5,73.6 c0,1.1,0.9,2.1,2.1,2.1c1.1,0,2.1-0.9,2.1-2.1c1.2-38.8-30.5-74.4-69.2-77.8c0.8-5.4,5.1-19.5,14.2-23.9c2.3,0.9,6.5,3.9,9.6,12.2 c14.1,36.8,56.1,30.6,63.8,29.4c1-0.2,1.8-1.1,1.7-2.1c-0.1-1.4-1.1-33.9-26.4-47c-15.1-7.8-28.4-6.2-36.9-3.6 c-1.1,0.4-1.7,1.5-1.4,2.6c0.4,1.1,1.5,1.7,2.6,1.4c7.7-2.6,22.3-3.5,35.5,4.3c-7.4-0.9-12.9,1.4-13.3,1.5c-1.1,0.5-1.5,1.6-1.1,2.7 c0.5,1.1,1.6,1.5,2.7,1.1c0.4-0.2,10.4-4.3,21,2.4c3.4,3.8,5.9,8.1,7.8,12.3c-7.3-3.8-14.8-2.5-17.6-1.7 c-12.9-11.1-30.3-20.2-43.2-20.4c-9.3-0.6-15.9,8.8-19.2,15.8c-0.8-12.5-3.4-20.6-3.6-21.1c-0.4-1.1-1.7-1.7-2.8-1.2l-5.6,2.5 c-4.2,1.9-6.3,6.8-4.7,11.2c4.2,11.6,3.3,27.6,2.7,33.6C73.8,52.6,73.5,52.2,73.5,52.2z M116.6,28.4c-1.6-5.9-4.4-9.6-7.1-11.9 c4.3,0.4,10.2,1.7,17.7,5.3c5.8,5.2,0.6,17,2.2,24.5C120.8,39.8,116.6,29.4,116.6,28.4z M171.2,41.4c1.8,6,2.5,11.2,2.7,13.8 c-6.4,0.9-12.4,1.2-17.9,0.8c-7.6-4.6-6.4-13.7-6.4-14.1c0.2-1.1-0.6-2.2-1.7-2.4c-1.1-0.2-2.2,0.6-2.4,1.7 c-0.1,0.4-1.1,7.8,3.4,13.8c-4.6-0.9-8.9-2.4-12.8-4.4c-6.2-6.1-0.1-17.6-2.5-25.4c7.9,4.8,17.2,11.9,27.6,22.7 c0.4,0.4,0.9,0.6,1.5,0.6c1.8,0.1,2.8-2.2,1.5-3.5c-3.2-3.4-6.3-6.4-9.4-9.1C159,35.6,165.7,35.9,171.2,41.4z"></path>	<path d="M157.6,139.4c0.2,0.1,2.9,0.5,3.1,0.5c2.5,0,2.8-3.6,0.4-4.1l-2.7-0.5C155.6,134.9,154.9,138.8,157.6,139.4z"></path>	<path d="M151.3,150.4c-2.1-1.7-4.7,1.4-2.6,3.2l2.5,2.1c0.9,0.7,2.2,0.6,2.9-0.3c0.7-0.9,0.6-2.2-0.3-2.9L151.3,150.4z"></path>	<path d="M134.5,156.3c-1.1-0.2-2.2,0.6-2.4,1.7l-0.4,2.4c-0.4,2.6,3.6,3.3,4.1,0.6l0.4-2.4C136.4,157.5,135.6,156.5,134.5,156.3z"></path>	<path d="M117.2,147.9l-2.1,0.9c-1.1,0.5-1.5,1.7-1,2.7c0.5,1.1,1.7,1.5,2.7,1l2.1-0.9C121.3,150.4,119.6,146.8,117.2,147.9z"></path>	<path d="M24.3,94.5c-1.9,1.9,0.9,4.9,2.9,3C29.2,95.5,26.3,92.6,24.3,94.5z"></path>	<path d="M38.6,90.7c-1.9,1.9,0.9,4.9,2.9,3C43.5,91.8,40.6,88.8,38.6,90.7z"></path>	<path d="M30.9,78.3c-1.9,1.9,0.9,4.9,2.9,3C35.8,79.3,32.9,76.4,30.9,78.3z"></path>	<path d="M131.1,181.5c-1.9,1.9,0.9,4.9,2.9,3C135.9,182.5,133.1,179.6,131.1,181.5z"></path></svg>